<?xml version="1.0" encoding="UTF-8" standalone="no"?>
<svg
   width="162.79471"
   height="109.86053"
   viewBox="0 0 162.79471 109.86053"
   version="1.1"
   id="svg1"
   xmlns="http://www.w3.org/2000/svg"
   xmlns:svg="http://www.w3.org/2000/svg">
  <defs
     id="defs1" />
  <path
     fill="#00d1f5"
     d="m 144.69377,0.80771707 c 0,0 -80.653638,-4.82786007 -144.6937678977003,9.12323993 0,0 54.1359198977003,21.15738 59.7447498977003,43.13124 5.64434,21.97386 9.12324,33.51102 -4.54387,56.798343 0,0 46.361648,-37.238413 73.163368,-34.824483 26.80172,2.41393 34.292,11.53716 34.292,11.53716 0,0 2.91091,-51.18951 -17.96248,-85.76549993 z m -3.4079,53.78092993 c -2.41393,-0.0355 -4.82786,-0.14199 -7.24179,-0.35499 -2.41393,-0.21299 -4.79236,-0.49698 -7.20629,-0.85197 -5.11185,-0.81648 -10.1882,-1.98794 -15.12255,-3.5854 -1.98795,2.34294 -3.97589,4.65037 -6.03483,6.9223 -6.780298,7.63228 -13.738098,15.12256 -20.908888,22.36435 -7.17079,7.27729 -14.44808,14.41258 -22.08035,21.192883 l -0.071,-0.071 20.4474,-22.719333 c 6.7803,-7.59678 13.56061,-15.15806 20.269908,-22.82584 1.70395,-1.98794 3.4434,-3.94038 5.14735,-5.92833 -3.15941,-1.13596 -6.24782,-2.41392 -9.300728,-3.86938 -2.20093,-1.02947 -4.33087,-2.16544 -6.46081,-3.3369 -2.09444,-1.20697 -4.15338,-2.48493 -6.17682,-3.79839 -2.02344,-1.34896 -4.01138,-2.73342 -5.89283,-4.22438 -1.91694,-1.49096 -3.76289,-3.01741 -5.60883,-4.61487 -1.81045,-1.59745 -3.5854,-3.2659 -5.25385,-4.96985 -1.70395,-1.70395 -3.3369,-3.4434 -4.93436,-5.28935 -1.59745,-1.81044 -3.12391,-3.65639 -4.57936,-5.57333 -1.49096,-1.88145 -2.87542,-3.83389 -4.33088,-5.75084 l 0.1065,-0.071 c 1.66845,1.73944 3.23041,3.54989 4.82786,5.28934 1.63295,1.73945 3.2659,3.4789 4.93436,5.18285 1.70395,1.66845 3.4079,3.3369 5.18284,4.89886 1.77495,1.59745 3.5854,3.12391 5.39585,4.61486 1.84594,1.49096 3.72739,2.91092 5.64433,4.29538 1.91695,1.38446 3.86939,2.69792 5.89283,3.97588 1.98794,1.27796 4.04688,2.44943 6.10582,3.5854 2.05894,1.13596 4.18888,2.20093 6.318818,3.1949 3.3014,1.52646 6.6383,2.87542 10.0817,4.11788 4.25988,-4.96985 8.48426,-9.93971 12.63763,-14.98056 6.46082,-7.84527 12.77963,-15.79704 18.60146,-24.17479 l 0.1065,0.071 c -2.27193,4.57937 -4.93436,8.94574 -7.73878,13.24112 -2.80441,4.25987 -5.78633,8.44875 -8.83924,12.53113 -3.69189,4.89886 -7.56128,9.69122 -11.50166,14.41258 4.43737,1.41996 8.98124,2.59143 13.5961,3.5144 4.65037,0.92297 9.33623,1.59745 14.09309,2.02344 4.72136,0.42599 9.51372,0.60348 14.30608,0.67448 v 0.1065 c -4.79236,0.60348 -9.58472,0.85197 -14.41258,0.78097 z"
     id="path1"
     style="stroke-width:0.35499" />
</svg>
